<?xml version="1.0" encoding="utf-8"?>
<!-- Generator: Adobe Illustrator 17.0.2, SVG Export Plug-In . SVG Version: 6.00 Build 0)  -->
<!DOCTYPE svg PUBLIC "-//W3C//DTD SVG 1.1//EN" "http://www.w3.org/Graphics/SVG/1.1/DTD/svg11.dtd">
<svg version="1.1" id="Layer_1" xmlns="http://www.w3.org/2000/svg" xmlns:xlink="http://www.w3.org/1999/xlink" x="0px" y="0px"
	 width="498.073px" height="485.775px" viewBox="16.45 37.44 498.073 485.775" enable-background="new 16.45 37.44 498.073 485.775"
	 xml:space="preserve">
<path fill="#FFFFFF" d="M265.47,37.44c-137.51,0-249.02,111.497-249.02,249.052c0,110.018,71.35,203.36,170.319,236.295
	c12.452,2.284,16.997-5.404,16.997-12.004c0-5.912-0.216-21.573-0.336-42.356c-69.274,15.05-83.891-33.383-83.891-33.383
	c-11.324-28.769-27.65-36.429-27.65-36.429c-22.611-15.452,1.711-15.138,1.711-15.138c24.992,1.761,38.145,25.664,38.145,25.664
	c22.215,38.057,58.286,27.068,72.476,20.693c2.263-16.094,8.696-27.068,15.811-33.293c-55.3-6.285-113.436-27.65-113.436-123.082
	c0-27.187,9.703-49.417,25.634-66.826c-2.561-6.3-11.107-31.62,2.442-65.907c0,0,20.91-6.696,68.483,25.53
	c19.864-5.524,41.168-8.286,62.347-8.382c21.148,0.096,42.454,2.859,62.347,8.382c47.545-32.226,68.416-25.53,68.416-25.53
	c13.587,34.287,5.039,59.607,2.478,65.907c15.961,17.409,25.598,39.639,25.598,66.826c0,95.67-58.226,116.722-113.706,122.888
	c8.942,7.688,16.907,22.888,16.907,46.118c0,33.293-0.306,60.153-0.306,68.318c0,6.66,4.486,14.408,17.124,11.975
	c98.873-32.996,170.163-126.277,170.163-236.266C514.523,148.937,403.012,37.44,265.47,37.44z"/>
</svg>
